<?xml version="1.0" encoding="utf-8"?>
<!-- Generator: Adobe Illustrator 26.0.1, SVG Export Plug-In . SVG Version: 6.00 Build 0)  -->
<svg version="1.1" id="Layer_1" xmlns="http://www.w3.org/2000/svg" xmlns:xlink="http://www.w3.org/1999/xlink" x="0px" y="0px"
	 viewBox="0 0 610 42.9" style="enable-background:new 0 0 610 42.9;" xml:space="preserve">
<path id="Path_1" fill="#ffffff" d="M9.8,23.8c-2.3,0-3.7-2.4-3.7-7.8c0-5.2,1.4-7.7,3.7-7.7s3.7,2.4,3.7,7.7C13.5,21.4,12,23.8,9.8,23.8z M24.7,0
	v13.2h-5.2C18.6,6.5,14.8,2.5,9.8,2.5c-5.7,0-9.9,5.2-9.9,13.6c0,8.4,4.2,13.6,9.9,13.6c5.2,0,9.1-4.3,9.8-11.4h5.2v19.4h6.5V0H24.7
	z M44.7,8.4h11.9V3.3H38.3V29h3.4c8.3,0,13-0.1,17.8-1l-0.6-5.3c-4.7,0.8-9.4,1.2-14.1,1V8.4z M61,0.1v37.7h6.5V0.1L61,0.1z
	 M87.6,2.8h-6.5v4.8c0,7.2-2.1,14.5-8.9,17.6l4,5.2c3.9-2,6.9-5.5,8.2-9.7c1.3,4,4.2,7.2,8,9.1l3.8-5.1c-6.6-2.9-8.5-9.8-8.5-17
	L87.6,2.8z M98.3,0v11.2H92v5.2h6.4v21.3h6.5V0H98.3z M117.1,3.6h-6.4v25h3.4c6,0.1,11.9-0.5,17.8-1.6l-0.7-5.2
	c-4.6,0.9-9.3,1.4-14,1.5V3.6z M144.3,13.8h-4.8V0H133v37.5h6.5V19.1h4.8V13.8z M148.7,42.9c5.6-1.7,8.5-5.6,8.5-10.7
	c0-4.2-1.7-6.6-4.8-6.6c-2.5,0-4.4,1.6-4.4,4c0,2.2,1.8,4,4,4c0.1,0,0.2,0,0.3,0h0.4c0,2.2-1.8,4.4-5.3,5.6L148.7,42.9z M184,34.4
	c8.1,0,13.6-5.8,13.6-15.6c0-9.7-5.5-15.3-13.6-15.3S170.4,9,170.4,18.8S175.9,34.4,184,34.4z M184,28.2c-3.9,0-6.3-3.7-6.3-9.4
	s2.4-9.2,6.3-9.2s6.4,3.4,6.4,9.2S188,28.2,184,28.2z M203.2,33.8h6.8V24c0-3.6-0.6-7.7-0.9-11h0.2l2.9,6.5l7.4,14.4h7.3V4H220v9.9
	c0.1,3.7,0.4,7.4,1,11h-0.2l-2.9-6.6L210.5,4h-7.3L203.2,33.8z M233.8,33.8h19.3v-6h-12.2v-6.3h10v-6h-10V10h11.7V4h-18.9V33.8z
	 M267.6,25.1c-2.1,0-3.6-1.3-3.6-3.9c0-2.6,1.5-3.9,3.6-3.9c2.1,0,3.6,1.3,3.6,3.9S269.8,25.1,267.6,25.1z M267.6,12.1
	c-5.6,0-9.7,3.8-9.7,9.1s4.2,9.1,9.7,9.1s9.7-3.8,9.7-9.1S273.2,12.1,267.6,12.1z M270.9,0.8h-6.5v4.6h-7.6v5.1h21.7V5.4h-7.6
	L270.9,0.8z M291.7,14.4h-5V0.1h-6.5v37.5h6.5v-18h5V14.4z M306.9,16.7h-5.4V8h5.4V16.7z M319,10.7v3h-5.7v-3H319z M313.2,18.8h5.7
	v8.6h6.5V0.1H319v5.5h-5.7V3h-18.1v18.8h18.1L313.2,18.8z M306.7,32v-7.2h-6.5v12.3h26V32H306.7z M341.7,33.8h9
	c8.7,0,14.7-4.7,14.7-15S359.4,4,350.3,4h-8.6V33.8z M348.9,28.1V9.8h1c4.8,0,8.2,2,8.2,9s-3.4,9.3-8.2,9.3H348.9z M370.9,33.8h7.2
	V4h-7.2V33.8z M392.1,19c0.8-3,1.6-6.4,2.3-9.6h0.2c0.8,3,1.6,6.6,2.4,9.6l0.6,2.5h-6.1L392.1,19z M381.1,33.8h7.3l1.7-6.8h8.8
	l1.7,6.8h7.5L398.9,4h-8.6L381.1,33.8z M411.3,33.8h11.2c6.5,0,11.6-2.7,11.6-8.8c0.2-3.3-2-6.3-5.3-7v-0.2c2.4-0.9,3.9-3.8,3.9-6.4
	c0-5.7-4.9-7.4-11.1-7.4h-10.4L411.3,33.8z M418.4,15.9V9.5h3c3,0,4.4,0.9,4.4,3c0,2-1.4,3.4-4.4,3.4H418.4z M418.4,28.4v-7.2h3.6
	c3.5,0,5.2,1,5.2,3.4c0,2.6-1.8,3.8-5.2,3.8H418.4z M439.1,33.8h18.8v-6h-11.6V4h-7.2V33.8z M473.6,34.4c8.1,0,13.6-5.8,13.6-15.6
	c0-9.7-5.5-15.3-13.6-15.3S459.9,9,459.9,18.8S465.4,34.4,473.6,34.4z M473.6,28.2c-3.9,0-6.3-3.7-6.3-9.4s2.4-9.2,6.3-9.2
	s6.4,3.4,6.4,9.2S477.5,28.2,473.6,28.2z M512.7,3.7h-7.8V0h-6.5v3.6h-7.8v5h22.1V3.7z M498.5,17c0-1.7,1.3-2.5,3.2-2.5
	s3.2,0.8,3.2,2.5c0,1.7-1.3,2.5-3.2,2.5S498.5,18.7,498.5,17z M511,17c0-4.3-3.9-7.4-9.4-7.4s-9.4,3.1-9.4,7.4
	c0,4.4,3.9,7.4,9.4,7.4S511,21.4,511,17z M502.3,26.1h-6.5v11h25.8V32h-19.3V26.1z M520.5,11.1v-11H514v28.1h6.5V16.4h4.7v-5.3
	H520.5z M535.3,8.6h11.1V3.4h-17.6v25.4h3.3c5.7,0.1,11.5-0.3,17.1-1.2l-0.6-5.3c-4.4,0.7-8.9,1.1-13.4,1.1L535.3,8.6z M562.2,13.4
	h-5V0h-6.5v37.7h6.5v-19h5L562.2,13.4z M569.9,34.4c2.4,0,4.3-1.9,4.2-4.3c0-0.1,0-0.1,0-0.2c0.1-2.3-1.7-4.3-4.1-4.4
	c-0.1,0-0.1,0-0.2,0c-2.3,0-4.2,1.8-4.2,4.2c0,0.1,0,0.2,0,0.2c-0.1,2.3,1.7,4.3,4,4.4C569.8,34.4,569.9,34.4,569.9,34.4z"/>
</svg>
