<svg version="1.0" xmlns="http://www.w3.org/2000/svg" width="528" viewBox="0 0 2013.6 1451.6" style="width: 100px; height: 80px;"><g fill="CurrentColor"><path d="M452.9 59.4c0-33.3-27-60.4-60.3-60.4H62.8c-9.3 0-16.9 7.5-16.9 16.9v428c0 9.3-7.5 16.9-16.9 16.9h-1.9c-9.3 0-16.9 7.5-16.9 16.9v117.5c0 9.3 7.5 16.9 16.9 16.9H29c9.3 0 16.9 7.5 16.9 16.9v355.4c0 23.8 19.3 43.1 43.1 43.1h78.6c23.8 0 43.1-19.3 43.1-43.1V620.7c0-4.8 3.9-8.6 8.6-8.6H323c34.9 0 75.4 5.4 105.3-20.7 18.4-16 23.6-40.9 24.8-64.6.1-27.9-.2-467.4-.2-467.4zM288.8 444c0 9.3-7.5 16.9-16.9 16.9h-44.3c-9.3 0-16.9-7.5-16.9-16.9V158.7c0-9.3 7.5-16.9 16.9-16.9h44.3c9.3 0 16.9 7.5 16.9 16.9V444zM1477.5 549.2c-.5-2.2-1.1-4.5-1.8-6.6-8.2-26-28.8-42-46.3-61.5-3.4-3.8-6.8-7.7-10.2-11.6.4.5 6.1-1.9 6.9-2.2 2.3-.9 4.6-1.9 6.8-3 14.3-7.3 26-21.7 30.5-37.2.3-1 .6-2.1.8-3.1 1.9-8.9 1.5-18.4 1.7-27.5.1-3.6.2-7.1.2-10.7.2-8.4.3-16.7.4-25.1l.3-29.3c.1-10.8.2-21.6.2-32.4.1-11.5.1-22.9.1-34.4 0-11.7 0-23.5.1-35.2v-34.9-33.6c0-10.4 0-20.7-.1-31 0-9.1 0-18.3-.1-27.4 0-7.6 0-15.1-.1-22.7 0-5.6 0-11.2-.1-16.9V50.8c.1-28.6-23.1-51.8-51.6-51.8H1098c-9.8 0-17.8 8-17.8 17.8v370.1c0 9.8-8 17.8-17.8 17.8s-17.8 8-17.8 17.8v106.9c0 9.8 8 17.8 17.8 17.8s17.8 8 17.8 17.8v443.3c0 9.8 9.1 17.8 18.9 17.8h273.2c59.1 0 107.2-47.7 107.7-106.8 0 0-.1-282.6.2-329.8.2-13.6.2-27.2-2.7-40.3zm-242-394.9c0-9.8 8-17.8 17.8-17.8h42.6c9.8 0 17.8 8 17.8 17.8v239.1c0 9.8-8 17.8-17.8 17.8h-42.5c-9.8 0-17.8-8-17.8-17.8l-.1-239.1zm79.6 711.1c0 9.8-8 17.8-17.8 17.8h-44c-9.8 0-17.8-8-17.8-17.8V580.2c0-9.8 8-17.8 17.8-17.8h44c9.8 0 17.8 8 17.8 17.8v285.2zM1957.3 406.6h-161.7c-8.1 0-14.6 6.5-14.6 14.6V533c0 8 6.5 14.5 14.5 14.5h6.6c8 0 14.5 6.5 14.5 14.5v307c0 8-6.5 14.6-14.5 14.6h-58.3c-8 0-14.5-6.5-14.5-14.5V151.4c0-8 6.5-14.5 14.5-14.5h79.8c8 0 14.5 6.5 14.5 14.5v82.7c0 8 6.5 14.5 14.5 14.5h103.3c8 0 15.7-6.5 15.7-14.5v-183c0-28.6-23.1-51.7-51.7-51.8h-269.4c-47.6 0-86.2 38.6-86.2 86.2v850.3c0 50 40.5 90.5 90.5 90.5h214c56.8 0 102.9-48.2 102.9-107.8V421.1c.2-8-6.3-14.5-14.4-14.5zM983.3 20c0-11.6-9.4-21-21-21H839.4c-11.6 0-21 9.4-21 21v841.7c0 11.9-9.7 21.5-21.5 21.5h-60.2c-11.9-.1-21.5-9.7-21.5-21.5V20c0-11.6-9.4-21-21-21H571.3c-11.6 0-21 9.4-21 21v869.8c0 28-.3 56.3 14 81.5 5.6 9.9 12.8 18.9 21.2 26.6 2 1.9 4.2 3.6 6.4 5.3 1.6 1.2 3.2 2.4 4.8 3.5.9.7 1.8 1.3 2.8 1.9 11.3 7.3 23.8 12.5 37 15.2 7.1 1.5 14.4 2.2 21.7 2.2h217.4c7.3 0 14.6-.7 21.7-2.2 13.2-2.7 25.7-7.9 37-15.2.9-.6 1.9-1.2 2.8-1.9 1.6-1.1 3.2-2.3 4.8-3.5 2.2-1.7 4.3-3.5 6.4-5.3 8.4-7.7 15.6-16.7 21.2-26.6 14.3-25.2 14-53.5 14-81.5-.2-22-.2-869.8-.2-869.8zM202.2 1207.6c-26.8 0-44.8 16.6-44.8 41.4v56.7c0 24.8 18 41.4 44.8 41.4 26 0 42.2-15 42.2-39v-13.6h-26.9v13c0 9-5.4 14.1-14.9 14.1s-14.9-5.1-14.9-13.6v-61.2c0-8.6 5.6-13.7 14.9-13.7s14.9 5.2 14.9 14.1v13h26.9v-13.6c0-24.1-16.2-39-42.2-39zM369.6 1207.8c-13.2 0-24.4 4-32.3 11.5-7.7 7.3-11.7 17.5-11.7 29.3v57.5c0 24.9 17.3 41 44 41s44-16.1 44-41v-57.5c-.1-24.8-17.3-40.8-44-40.8zm13.9 39.2v60.7c0 8.7-5.2 13.9-13.9 13.9s-13.7-5.2-13.7-13.9V1247c0-8.7 5.1-13.9 13.7-13.9s13.9 5.2 13.9 13.9zM577.8 1259.4v-15.8c0-20.5-13-32.7-34.7-32.7h-48.7v132.8h29.8v-51.2h6.7l18.7 51.2h30.9l-21.2-54.9c12.3-4.5 18.5-14.4 18.5-29.4zm-53.6-24.8h15.7c6.3 0 9.2 3.1 9.2 9.8v15.6c0 7.2-3.3 10.6-10.4 10.6h-14.5v-36zM709.2 1210.9h-48.3v132.8h29.8V1295h18.5c21.6 0 34.5-12.4 34.5-33.1v-17.7c-.1-20.8-13-33.3-34.5-33.3zm-18.6 23.7h15.1c6.4 0 9.2 3.2 9.2 10.2v17.5c0 7.1-2.8 10.2-9.2 10.2h-15.1v-37.9zM868 1207.8c-13.2 0-24.4 4-32.3 11.5-7.7 7.3-11.7 17.5-11.7 29.3v57.5c0 24.9 17.3 41 44 41s44-16.1 44-41v-57.5c0-24.8-17.2-40.8-44-40.8zm14 39.2v60.7c0 8.7-5.2 13.9-13.9 13.9s-13.7-5.2-13.7-13.9V1247c0-8.7 5.1-13.9 13.7-13.9s13.9 5.2 13.9 13.9zM1080.2 1259.4v-15.8c0-20.5-13-32.7-34.7-32.7h-48.7v132.8h29.8v-51.2h6.7l18.7 51.2h30.9l-21.2-54.9c12.3-4.5 18.5-14.4 18.5-29.4zm-53.6-24.8h15.7c6.3 0 9.2 3.1 9.2 9.8v15.6c0 7.2-3.3 10.6-10.4 10.6h-14.5v-36zM1185.3 1210.9l-31.1 132.8h28.1l5.5-26h25.8l5.5 26h29.9l-30.9-132.8h-32.8zm24.2 84.3h-17.3l9-42.8 8.3 42.8zM1312.5 1236.6h28.4v107.1h29.8v-107.1h28.2v-25.7h-86.3v25.7h-.1zM1477.9 1210.9h29.8v132.8h-29.8v-132.8zM1636.7 1207.8c-13.2 0-24.4 4-32.3 11.5-7.7 7.3-11.7 17.5-11.7 29.3v57.5c0 24.9 17.3 41 44 41s44-16.1 44-41v-57.5c0-24.8-17.3-40.8-44-40.8zm14 39.2v60.7c0 8.7-5.2 13.9-13.9 13.9s-13.7-5.2-13.7-13.9V1247c0-8.7 5.1-13.9 13.7-13.9s13.9 5.2 13.9 13.9zM1827.7 1210.9v72.5l-9.1-18.3-28.4-54.2h-24.8v132.8h27.5v-71.5l9.7 18.5 29.2 53h23v-132.8h-27.1z"></path><path d="M2013.6 1199.9v-35.6h-26.1V1103H26.2v61.3H0v35.6h26.2v154.7H0v35.6h26.2v61.4h1961.3v-61.4h26.1v-35.6h-26.1v-154.8l26.1.1zm-61.4 216.2H61.6v-277.8h1890.5v277.8h.1z"></path></g></svg>