{
    "asset" : {
        "generator" : "Khronos glTF Blender I/O v1.7.33",
        "version" : "2.0"
    },
    "scene" : 0,
    "scenes" : [
        {
            "name" : "Scene",
            "nodes" : [
                0
            ]
        }
    ],
    "nodes" : [
        {
            "mesh" : 0,
            "name" : "icon_base",
            "rotation" : [
                0.7071068286895752,
                0,
                0,
                0.7071068286895752
            ],
            "scale" : [
                10,
                1,
                10
            ]
        }
    ],
    "materials" : [
        {
            "doubleSided" : true,
            "name" : "Material.001",
            "pbrMetallicRoughness" : {
                "baseColorFactor" : [
                    0.20186813175678253,
                    0.020936263725161552,
                    0.014032453298568726,
                    1
                ],
                "metallicFactor" : 0
            }
        },
        {
            "doubleSided" : true,
            "name" : "Material.003",
            "pbrMetallicRoughness" : {
                "baseColorFactor" : [
                    0.02079162746667862,
                    0.02079162746667862,
                    0.02079162746667862,
                    1
                ],
                "metallicFactor" : 0,
                "roughnessFactor" : 0.5
            }
        }
    ],
    "meshes" : [
        {
            "name" : "icon_base",
            "primitives" : [
                {
                    "attributes" : {
                        "POSITION" : 0,
                        "NORMAL" : 1,
                        "TEXCOORD_0" : 2
                    },
                    "indices" : 3,
                    "material" : 0
                },
                {
                    "attributes" : {
                        "POSITION" : 4,
                        "NORMAL" : 5,
                        "TEXCOORD_0" : 6
                    },
                    "indices" : 7,
                    "material" : 1
                }
            ]
        }
    ],
    "accessors" : [
        {
            "bufferView" : 0,
            "componentType" : 5126,
            "count" : 646,
            "max" : [
                0.06380639970302582,
                0.1741774082183838,
                0.06403260678052902
            ],
            "min" : [
                -0.06430250406265259,
                0.1666460633277893,
                -0.06411131471395493
            ],
            "type" : "VEC3"
        },
        {
            "bufferView" : 1,
            "componentType" : 5126,
            "count" : 646,
            "type" : "VEC3"
        },
        {
            "bufferView" : 2,
            "componentType" : 5126,
            "count" : 646,
            "type" : "VEC2"
        },
        {
            "bufferView" : 3,
            "componentType" : 5123,
            "count" : 1146,
            "type" : "SCALAR"
        },
        {
            "bufferView" : 4,
            "componentType" : 5126,
            "count" : 654,
            "max" : [
                0.06380639970302582,
                0.16898128390312195,
                0.06403260678052902
            ],
            "min" : [
                -0.06430250406265259,
                -0.1643373966217041,
                -0.06411131471395493
            ],
            "type" : "VEC3"
        },
        {
            "bufferView" : 5,
            "componentType" : 5126,
            "count" : 654,
            "type" : "VEC3"
        },
        {
            "bufferView" : 6,
            "componentType" : 5126,
            "count" : 654,
            "type" : "VEC2"
        },
        {
            "bufferView" : 7,
            "componentType" : 5123,
            "count" : 1170,
            "type" : "SCALAR"
        }
    ],
    "bufferViews" : [
        {
            "buffer" : 0,
            "byteLength" : 7752,
            "byteOffset" : 0
        },
        {
            "buffer" : 0,
            "byteLength" : 7752,
            "byteOffset" : 7752
        },
        {
            "buffer" : 0,
            "byteLength" : 5168,
            "byteOffset" : 15504
        },
        {
            "buffer" : 0,
            "byteLength" : 2292,
            "byteOffset" : 20672
        },
        {
            "buffer" : 0,
            "byteLength" : 7848,
            "byteOffset" : 22964
        },
        {
            "buffer" : 0,
            "byteLength" : 7848,
            "byteOffset" : 30812
        },
        {
            "buffer" : 0,
            "byteLength" : 5232,
            "byteOffset" : 38660
        },
        {
            "buffer" : 0,
            "byteLength" : 2340,
            "byteOffset" : 43892
        }
    ],
    "buffers" : [
        {
            "byteLength" : 46232,
            "uri" : "data:application/octet-stream;base64,"
        }
    ]
}
